<svg width="672" height="79" viewBox="0 0 672 79" fill="none" xmlns="http://www.w3.org/2000/svg">
<path d="M597.733 4.00721L593.467 8.40721L606.267 22.8072L618.933 37.0739L611.6 45.4739C607.6 50.0072 601.867 56.5405 598.933 59.8739L593.467 66.0072L598.133 70.5405C602.133 74.4072 602.933 74.6739 604.533 73.0739C605.467 72.0072 611.6 65.0739 618 57.7405C624.533 50.4072 631.2 42.8072 633.067 40.8072L636.4 37.2072L620 18.8072C610.933 8.67387 603.2 0.27388 602.667 0.00720978C602.267 -0.126122 600 1.60721 597.733 4.00721Z" fill="white"/>
<path d="M8.53333 11.2072C2.93333 13.8739 0 19.4739 0 27.4739C0 32.1406 0.8 35.0739 2.93333 37.7406C7.73333 44.0072 12.6667 45.0739 34.4 45.0739C56 45.0739 57.3333 45.4739 57.3333 52.4072C57.3333 59.4739 56.4 59.7406 27.7333 59.7406H1.33333V65.0739V70.4072H30.4C62.2667 70.4072 63.8667 70.0072 69.0667 62.4072C71.7333 58.5406 72.1333 56.5406 71.7333 50.6739C71.2 44.8072 70.2667 42.8072 66.8 39.3406V39.3406C64.1497 36.6048 60.5362 35.0116 56.7288 34.9003L39.8667 34.4072C19.4667 33.7406 16.8 33.3406 15.2 31.0739C12.6667 27.6072 12.8 25.6072 16 22.4072C18.5333 19.8739 20.4 19.7406 43.3333 19.7406H68V14.4072V9.07389H40.4C18.4 9.07389 11.8667 9.60722 8.53333 11.2072Z" fill="white"/>
<path d="M96.9333 11.0739C83.4667 16.1405 78 24.4072 78 39.7405C78 55.3405 84.9333 65.3405 98 68.9405C105.067 70.8072 132.267 70.8072 138.8 68.8072C150.8 65.3405 158.667 53.7405 158.667 39.8739C158.667 26.8072 153.733 18.1405 143.467 12.6739C138.8 10.2739 135.467 9.74055 120 9.47388C106.933 9.20721 100.667 9.60721 96.9333 11.0739ZM140.267 24.6739C144.133 28.5405 144.667 30.0072 145.067 38.0072C145.467 45.8739 145.067 47.7405 142.4 51.7405C137.733 58.6739 134.533 59.7405 117.867 59.7405C104.667 59.7405 102.533 59.4739 98.5333 56.6739C92 52.2739 90.5333 48.5405 90.9333 38.1405C91.3333 30.8072 92 28.5405 94.6667 25.6072C99.7333 20.2739 102 19.7405 119.6 20.1405L129.967 20.3091C133.836 20.372 137.53 21.9373 140.267 24.6739V24.6739Z" fill="white"/>
<path d="M168 39.7406V70.4072H174.667H181.333V48.9406C181.333 24.4072 180.4 25.6072 193.333 34.4072L201.333 39.8739V55.0739V70.4072H208H214.667V54.6739L214.8 39.0739L223.733 33.3406L232.667 27.6072L233.333 48.6739L234 69.7406L241.067 70.1406L248 70.5406V39.8739V9.07389H242.133C237.2 9.07389 234.667 10.2739 224.133 17.7406C217.467 22.4072 210.933 26.9406 209.6 27.6072C207.867 28.5406 204.267 26.5406 193.467 18.9406C181.333 10.4072 178.8 9.07389 173.733 9.07389H168V39.7406Z" fill="white"/>
<path d="M260 39.7406V70.4072H293.333H326.667V65.0739V59.7406L300.4 59.4739L274 59.0739L273.6 52.0072L273.2 45.0739H297.2H321.333V39.7406V34.4072L297.733 34.1406L274 33.7406L273.6 27.3406C273.067 20.1406 271.2 20.6739 293.467 21.0739C301.333 21.2072 312 20.8072 317.2 20.2739L326.667 19.3406V14.2739V9.07389H293.333H260V39.7406Z" fill="white"/>
<path d="M336 39.7406V70.4072H342.667H349.333V49.0739C349.333 37.3406 349.6 27.7406 349.867 27.7406C350.133 27.7406 359.867 37.3406 371.467 49.0739L392.533 70.4072H399.6H406.667V39.7406V9.07389H400H393.333V30.4072C393.333 42.1406 392.933 51.7406 392.267 51.7406C391.733 51.7406 382.133 42.1406 370.933 30.4072L350.533 9.07389H343.2H336V39.7406Z" fill="white"/>
<path d="M416 24.4072V39.7406H423.333H430.667V30.5406C430.667 22.0072 430.933 21.3406 433.867 20.5406C435.6 20.1406 438.933 20.1406 441.2 20.5406L445.333 21.3406V45.8739V70.4072H452H458.667V45.8739V21.3406L464 20.4072C466.933 19.8739 471.067 19.8739 473.333 20.4072C477.333 21.3406 477.333 21.3406 477.333 30.5406V39.7406H484.667H492V24.4072V9.07389H454H416V24.4072Z" fill="white"/>
<path d="M501.333 39.7406V70.4072H534.667H568V65.0739V59.7406H543.467C530 59.7406 518 59.3406 516.8 58.9406C515.2 58.4072 514.667 56.2739 514.667 51.6072V45.0739L539.067 44.8072L563.333 44.4072V39.7406V35.0739L539.333 34.2739C526.133 33.8739 515.2 33.4739 515.067 33.3406C514.8 33.2072 514.667 30.4072 514.667 27.0739C514.667 20.0072 513.067 20.5406 536.133 21.0739C544.667 21.2072 555.333 20.9406 559.867 20.4072L568 19.4739V14.2739V9.07389H534.667H501.333V39.7406Z" fill="white"/>
<path d="M634.267 66.0072C633.733 66.4072 633.333 69.4739 633.333 72.6739V78.4072H652.667H672V71.7406V65.0739H653.6C643.467 65.0739 634.667 65.4739 634.267 66.0072Z" fill="white"/>
</svg>
